<svg version="1.1" viewBox="0 0 20 20" xmlns="http://www.w3.org/2000/svg">
	<!--© 2011-2022 OOUI Team and other contributors|github.com/wikimedia/oojs-ui/blob/master/LICENSE-MIT -->
	<path d="m10 2.5a7.5 7.5 0 0 0 0 15 7.5 7.5 0 0 0 0-15v4a3.5 3.5 0 0 1 0 7 3.5 3.5 0 0 1 0-7m6.0104 11.632 2.1213-2.1213-3.8891-5.3033-3.5355 3.5355m-4.9497-4.9497 3.5355-3.5355-5.3033-3.8891-2.1213 2.1213m18.132 7.5104v-3l-6.5-1v5m-7 0v-5l-6.5 1v3m18.132-7.5104-2.1213-2.1213-5.3033 3.8891 3.5355 3.5355m-4.9497 4.9497-3.5355-3.5355-3.8891 5.3033 2.1213 2.1213m7.5104-18.132h-3l-1 6.5h5m0 7h-5l1 6.5h3" opacity=".51"/>
</svg>