<svg xmlns="http://www.w3.org/2000/svg" width="20" height="20"><path d="M20 18h-1.44a.61.61 0 0 1-.4-.12.81.81 0 0 1-.23-.31L17 15h-5l-1 2.54a.77.77 0 0 1-.22.3.59.59 0 0 1-.4.14H9l4.55-11.47h1.89zm-3.53-4.31L14.89 9.5c-.153-.406-.283-.82-.39-1.24-.101.447-.234.81-.38 1.25l-1.58 4.19zm-6.3-1.58c-1.023-.351-2-.825-2.91-1.41a11.46 11.46 0 0 0 2.81-5.37H12V4H7.31L6.6 2l-1.47.5s.4.89.6 1.5H0v1.33h2.15A11.23 11.23 0 0 0 5 10.7a17.19 17.19 0 0 1-5 2.1c.373.547.663 1.007.87 1.38a23.28 23.28 0 0 0 5.22-2.51 15.642 15.642 0 0 0 3.56 1.77zM3.63 5.33h4.91a8.11 8.11 0 0 1-2.45 4.45 9.11 9.11 0 0 1-2.46-4.45z" opacity=".7"/></svg>