<svg xmlns="http://www.w3.org/2000/svg" width="20" height="20" viewBox="0 0 20 20">
	<path d="m12.879 2.165-9.465 9.471 4.95 4.95 9.465-9.471zm0 2.829L15 7.115l-6.636 6.643-2.121-2.122zM6.95 18H2v-4.95zm9.336-7.963a.824.824 0 0 1 .318.65v4.95a.824.824 0 0 0 .825-.824v-4.95a.824.824 0 0 0-.315-.649Zm-.413.414-1.316 1.317h.843v2.062h-1.65v-1.256l-.412.412v.018h-.018l-.414.414h.432v.412h-.844l-.412.412H15.4v.412h-3.713v-.017l-.859.86v.966c0 .456.37.824.826.824h3.713a.824.824 0 0 0 .824-.824V11.1a.809.809 0 0 0-.318-.649zm-4.185 4.615H15.4v.413h-3.713v-.413zm0 .827H15.4v.412h-3.713v-.412z" opacity=".51"/>
</svg>
